<svg width="35" height="22" viewBox="0 0 35 22" fill="none" xmlns="http://www.w3.org/2000/svg">
<path d="M0.657227 2.76611C0.657227 1.2503 1.92841 0.0214844 3.4965 0.0214844H31.8892C33.4573 0.0214844 34.7285 1.2503 34.7285 2.76611V19.2339C34.7285 20.7497 33.4573 21.9785 31.8892 21.9785H3.4965C1.92841 21.9785 0.657227 20.7497 0.657227 19.2339V2.76611Z" fill="#FCE0CF"/>
<path d="M20.9438 10.9855C20.9464 10.3956 20.7176 9.80483 20.2571 9.35965C19.7957 8.91355 19.183 8.69256 18.5715 8.69611C18.5686 8.69611 18.5657 8.69592 18.5627 8.69592C17.2348 8.69592 16.1815 9.71386 16.1815 10.9979C16.1815 12.2692 17.2478 13.2996 18.5627 13.2996C19.891 13.2996 20.9441 12.2815 20.9441 10.9979C20.9441 10.9936 20.9438 10.9897 20.9438 10.9855Z" fill="#F26E21"/>
<path d="M15.7392 11.9722C15.3833 12.3166 15.0548 12.4512 14.7009 12.4585C13.839 12.451 13.2052 11.8339 13.2052 10.9541C13.2052 10.5113 13.3787 10.1483 13.6535 9.83826C13.9112 9.60177 14.2431 9.44897 14.6249 9.44897C15.037 9.44897 15.3577 9.58175 15.7238 9.9359V8.91778C15.3577 8.7408 15.0369 8.65221 14.6249 8.65221C14.0428 8.69243 13.4939 8.9198 13.0729 9.27682C12.9515 9.38236 12.8353 9.49886 12.7367 9.6322C12.4291 10.0175 12.2433 10.4893 12.2433 10.9986C12.2433 12.2822 13.2969 13.256 14.6248 13.256C14.6313 13.256 14.6377 13.2555 14.644 13.2554C14.6529 13.2555 14.6617 13.256 14.6705 13.256C15.0368 13.256 15.3577 13.1677 15.7698 12.9906L15.7392 11.9722C15.7237 11.9871 15.7545 12.001 15.7392 12.0152V11.9722Z" fill="#2B2B2B"/>
<path d="M23.9501 9.28663L22.913 11.7514L21.7223 8.82951H20.7608L22.6383 13.3006H23.142L25.1111 8.82951H24.1496L23.9501 9.28663Z" fill="#2B2B2B"/>
<path d="M25.4782 13.168H27.9968V12.4595H26.3941V11.2645H27.9512V10.5117H26.3941V9.58219H27.9968V8.82951H25.4782V13.168Z" fill="#2B2B2B"/>
<path d="M4.77898 8.8304H3.4965V13.1689H4.77891C5.46572 13.1689 5.96938 12.9917 6.38153 12.6818C6.88519 12.2834 7.20589 11.6638 7.20589 10.9999C7.20595 9.71574 6.2441 8.8304 4.77898 8.8304ZM5.83215 12.1064C5.55736 12.3277 5.191 12.4603 4.64143 12.4603H4.36664V9.58301H4.59558C5.14515 9.58301 5.51151 9.67154 5.78636 9.93704C6.10687 10.2025 6.29014 10.6011 6.29014 10.9997C6.33593 11.3981 6.15278 11.8406 5.83215 12.1064Z" fill="#2B2B2B"/>
<path d="M8.48836 8.8293H7.61828V13.1677H8.48836V8.8293Z" fill="#2B2B2B"/>
<path d="M10.6866 10.5122C10.1371 10.3352 9.99956 10.2023 9.99956 9.98105C9.99956 9.71543 10.2743 9.49412 10.6407 9.49412C10.9155 9.49412 11.1444 9.5827 11.3734 9.84833L11.8315 9.27288C11.465 8.96287 11.0073 8.78601 10.5035 8.78601C9.72477 8.78601 9.08362 9.31726 9.08362 10.0253C9.08362 10.6452 9.35866 10.9108 10.1828 11.2207C10.5492 11.3533 10.6866 11.3977 10.7784 11.4862C10.9612 11.5746 11.053 11.7519 11.053 11.9287C11.053 12.2829 10.7784 12.5486 10.366 12.5486C9.95345 12.5486 9.58741 12.3273 9.4042 11.9731L8.85462 12.5043C9.26696 13.0798 9.77068 13.3454 10.4118 13.3454C11.3276 13.3454 11.9685 12.7699 11.9685 11.9287C11.9686 11.1763 11.6941 10.8665 10.6866 10.5122Z" fill="#2B2B2B"/>
<path d="M30.4702 11.3527C31.1569 11.2201 31.5233 10.7773 31.5233 10.1134C31.5233 9.31675 30.9279 8.82951 29.9206 8.82951H28.5925V13.168H29.4625V11.4413H29.6001L30.8362 13.168H31.8896L30.4702 11.3527ZM29.7372 10.8215H29.4626V9.49361H29.7372C30.2868 9.49361 30.6075 9.71485 30.6075 10.1578C30.6075 10.6003 30.2868 10.8215 29.7372 10.8215Z" fill="#2B2B2B"/>
</svg>
