<svg width="34" height="22" viewBox="0 0 34 22" fill="none" xmlns="http://www.w3.org/2000/svg">
<path d="M0.342773 2.76611C0.342773 1.2503 1.58571 0.0214844 3.11895 0.0214844H30.8807C32.4139 0.0214844 33.6569 1.2503 33.6569 2.76611V19.2339C33.6569 20.7497 32.4139 21.9785 30.8807 21.9785H3.11895C1.58571 21.9785 0.342773 20.7497 0.342773 19.2339V2.76611Z" fill="#CCEFFF"/>
<path d="M20.6434 17.4758H13.3566V4.52904H20.6434V17.4758Z" fill="#6C6BBD"/>
<path d="M13.8234 11C13.8234 8.37367 15.0671 6.03422 17.0041 4.52658C15.5876 3.42413 13.8001 2.76611 11.8573 2.76611C7.25807 2.76611 3.52985 6.45248 3.52985 11C3.52985 15.5475 7.25807 19.2339 11.8573 19.2339C13.8001 19.2339 15.5876 18.5758 17.0041 17.4734C15.0671 15.9658 13.8234 13.6263 13.8234 11Z" fill="#EB001B"/>
<path d="M30.4707 11C30.4707 15.5475 26.7424 19.2339 22.1432 19.2339C20.2004 19.2339 18.4128 18.5758 16.9959 17.4734C18.9333 15.9658 20.1771 13.6263 20.1771 11C20.1771 8.37367 18.9333 6.03422 16.9959 4.52658C18.4128 3.42413 20.2004 2.76611 22.1432 2.76611C26.7424 2.76611 30.4707 6.45248 30.4707 11Z" fill="#0099DF"/>
</svg>
