<svg width="36" height="22" viewBox="0 0 36 22" fill="none" xmlns="http://www.w3.org/2000/svg">
<path d="M0.957031 2.76611C0.957031 1.2503 2.22822 0.0214844 3.7963 0.0214844H32.189C33.7571 0.0214844 35.0283 1.2503 35.0283 2.76611V19.2339C35.0283 20.7497 33.7571 21.9785 32.189 21.9785H3.7963C2.22821 21.9785 0.957031 20.7497 0.957031 19.2339V2.76611Z" fill="#CCDEFF"/>
<path d="M8.60235 7.92425C8.24647 7.68775 7.78208 7.56922 7.20918 7.56922H4.9912C4.81558 7.56922 4.71855 7.65412 4.70011 7.82378L3.79913 13.291C3.78976 13.3447 3.80366 13.3938 3.8407 13.4384C3.87752 13.4831 3.92383 13.5054 3.97929 13.5054H5.03281C5.2176 13.5054 5.31916 13.4207 5.3378 13.2508L5.58729 11.7769C5.5964 11.7054 5.62889 11.6474 5.68436 11.6026C5.73978 11.558 5.8091 11.5288 5.89227 11.5154C5.97545 11.5022 6.05388 11.4955 6.12794 11.4955C6.2018 11.4955 6.28955 11.5 6.39137 11.5089C6.49293 11.5178 6.55767 11.5222 6.58543 11.5222C7.38015 11.5222 8.00394 11.3057 8.45684 10.8723C8.90954 10.4391 9.13614 9.83838 9.13614 9.06991C9.13614 8.54285 8.95806 8.16111 8.60235 7.92425ZM7.45879 9.56588C7.41243 9.8786 7.29244 10.084 7.09838 10.1823C6.90427 10.2807 6.62704 10.3297 6.26667 10.3297L5.80918 10.343L6.0449 8.90919C6.06329 8.81101 6.12333 8.76186 6.22506 8.76186H6.48852C6.858 8.76186 7.12617 8.81334 7.29252 8.9159C7.45879 9.01871 7.51425 9.23542 7.45879 9.56588Z" fill="#003087"/>
<path d="M32.0085 7.56921H30.9828C30.8808 7.56921 30.8208 7.61836 30.8025 7.7167L29.9015 13.2912L29.8876 13.318C29.8876 13.3629 29.906 13.4051 29.9431 13.4453C29.9798 13.4855 30.0263 13.5056 30.0817 13.5056H30.9967C31.172 13.5056 31.2691 13.4209 31.2878 13.251L32.1888 7.77032V7.75701C32.1888 7.63188 32.1285 7.56921 32.0085 7.56921Z" fill="#009CDE"/>
<path d="M19.6156 9.72802C19.6156 9.68346 19.597 9.64095 19.5603 9.60085C19.5232 9.56067 19.4816 9.54043 19.4355 9.54043H18.3681C18.2662 9.54043 18.1831 9.58532 18.1185 9.67441L16.6491 11.7649L16.0392 9.75489C15.9927 9.61207 15.8912 9.54043 15.7342 9.54043H14.6944C14.6481 9.54043 14.6065 9.56058 14.5698 9.60085C14.5327 9.64095 14.5143 9.68354 14.5143 9.72802C14.5143 9.746 14.6044 10.0095 14.7846 10.5187C14.9648 11.028 15.1588 11.5774 15.3668 12.1671C15.5748 12.7566 15.6833 13.0694 15.6925 13.1049C14.9347 14.1056 14.5559 14.6416 14.5559 14.7129C14.5559 14.8292 14.6159 14.8872 14.7361 14.8872H15.8035C15.9051 14.8872 15.9883 14.8426 16.0531 14.7532L19.588 9.82178C19.6064 9.80408 19.6156 9.773 19.6156 9.72802Z" fill="#003087"/>
<path d="M29.5557 9.53838H28.5022C28.3726 9.53838 28.2944 9.68583 28.2666 9.9807C28.026 9.62345 27.5874 9.44459 26.9496 9.44459C26.2842 9.44459 25.7181 9.68583 25.2515 10.1683C24.7848 10.6507 24.5515 11.2181 24.5515 11.8702C24.5515 12.3974 24.7109 12.8172 25.0297 13.1298C25.3485 13.4426 25.7759 13.5988 26.3121 13.5988C26.58 13.5988 26.8526 13.5451 27.1299 13.438C27.4071 13.3308 27.6241 13.1879 27.7815 13.0092C27.7815 13.0181 27.772 13.0582 27.7538 13.1296C27.7351 13.2012 27.726 13.255 27.726 13.2904C27.726 13.4335 27.7859 13.5048 27.9062 13.5048H28.8628C29.0382 13.5048 29.1399 13.4201 29.1676 13.2503L29.736 9.75276C29.7451 9.69911 29.7313 9.65008 29.6944 9.60535C29.6572 9.56079 29.6111 9.53838 29.5557 9.53838ZM27.7467 12.1784C27.5111 12.4017 27.2268 12.5133 26.8942 12.5133C26.6261 12.5133 26.4091 12.442 26.2427 12.2989C26.0762 12.1563 25.9931 11.9598 25.9931 11.7093C25.9931 11.379 26.1086 11.0996 26.3397 10.8718C26.5704 10.644 26.8572 10.5302 27.1991 10.5302C27.4577 10.5302 27.6726 10.6038 27.8437 10.7512C28.0145 10.8986 28.1003 11.1019 28.1003 11.361C28.1002 11.6826 27.9824 11.9551 27.7467 12.1784Z" fill="#009CDE"/>
<path d="M13.8079 9.53838H12.7543C12.6248 9.53838 12.5464 9.68583 12.5186 9.9807C12.2691 9.62345 11.8301 9.44459 11.2017 9.44459C10.5363 9.44459 9.97017 9.68583 9.50354 10.1683C9.03678 10.6507 8.80352 11.2181 8.80352 11.8702C8.80352 12.3974 8.96297 12.8172 9.28181 13.1298C9.60065 13.4426 10.028 13.5988 10.564 13.5988C10.8227 13.5988 11.0908 13.5451 11.368 13.438C11.6453 13.3308 11.8671 13.1879 12.0334 13.0092C11.9964 13.1163 11.978 13.2101 11.978 13.2904C11.978 13.4335 12.038 13.5048 12.1582 13.5048H13.1147C13.2901 13.5048 13.3919 13.4201 13.4196 13.2503L13.988 9.75276C13.9971 9.69911 13.9833 9.65008 13.9464 9.60535C13.9094 9.56079 13.8633 9.53838 13.8079 9.53838ZM11.9989 12.185C11.7631 12.4041 11.4742 12.5133 11.1325 12.5133C10.8643 12.5133 10.6495 12.442 10.4879 12.2989C10.326 12.1563 10.2452 11.9598 10.2452 11.7093C10.2452 11.379 10.3607 11.0996 10.5918 10.8718C10.8227 10.644 11.1092 10.5301 11.4513 10.5301C11.7099 10.5301 11.9248 10.6038 12.0959 10.7512C12.2668 10.8986 12.3524 11.1019 12.3524 11.361C12.3523 11.6916 12.2345 11.9664 11.9989 12.185Z" fill="#003087"/>
<path d="M24.3499 7.92424C23.9941 7.68774 23.5298 7.56921 22.9568 7.56921H20.7526C20.5678 7.56921 20.4661 7.65412 20.4477 7.82377L19.5466 13.291C19.5373 13.3447 19.5512 13.3938 19.5882 13.4384C19.6249 13.4831 19.6713 13.5054 19.7268 13.5054H20.8635C20.9743 13.5054 21.0482 13.4474 21.0853 13.3312L21.3348 11.7769C21.344 11.7054 21.3764 11.6474 21.4319 11.6026C21.4874 11.558 21.5566 11.5288 21.6399 11.5154C21.723 11.5022 21.8014 11.4954 21.8755 11.4954C21.9494 11.4954 22.0371 11.5 22.1388 11.5089C22.2404 11.5178 22.3053 11.5221 22.3329 11.5221C23.1278 11.5221 23.7514 11.3057 24.2043 10.8723C24.6572 10.4391 24.8836 9.83837 24.8836 9.0699C24.8836 8.54284 24.7056 8.16106 24.3499 7.92424ZM22.9291 10.1286C22.7258 10.2626 22.4207 10.3295 22.0142 10.3295L21.5705 10.343L21.8062 8.9091C21.8245 8.81096 21.8846 8.76173 21.9864 8.76173H22.2358C22.4392 8.76173 22.6008 8.7707 22.7212 8.78851C22.8411 8.80645 22.9568 8.8622 23.0677 8.95595C23.1787 9.04979 23.234 9.1861 23.234 9.36468C23.234 9.74003 23.1323 9.99451 22.9291 10.1286Z" fill="#009CDE"/>
</svg>
