<svg width="34" height="22" viewBox="0 0 34 22" fill="none" xmlns="http://www.w3.org/2000/svg">
<path d="M0.0292969 2.76611C0.0292969 1.2503 1.27223 0.0214844 2.80547 0.0214844H30.5672C32.1005 0.0214844 33.3434 1.2503 33.3434 2.76611V19.2339C33.3434 20.7497 32.1005 21.9785 30.5672 21.9785H2.80547C1.27223 21.9785 0.0292969 20.7497 0.0292969 19.2339V2.76611Z" fill="#D8E3F3"/>
<path d="M28.7004 6.9042H26.9551C26.4275 6.9042 26.0216 7.0647 25.7781 7.58634L22.4499 15.0899H24.804C24.804 15.0899 25.2099 14.0868 25.2911 13.846C25.5346 13.846 27.8481 13.846 28.1728 13.846C28.2539 14.1269 28.4569 15.0498 28.4569 15.0498H30.5674L28.7004 6.9042ZM25.9404 12.1607C26.1434 11.6792 26.8334 9.87353 26.8334 9.87353C26.8334 9.91366 27.0363 9.39202 27.1175 9.11113L27.2798 9.8334C27.2798 9.8334 27.7263 11.7996 27.8075 12.2008H25.9404V12.1607Z" fill="#3362AB"/>
<path d="M22.612 12.4035C22.612 14.0888 21.0697 15.2123 18.675 15.2123C17.6604 15.2123 16.6863 15.0117 16.1586 14.7709L16.4833 12.9251L16.7674 13.0455C17.498 13.3665 17.985 13.4869 18.878 13.4869C19.5274 13.4869 20.2174 13.2461 20.2174 12.6843C20.2174 12.3232 19.9332 12.0824 19.0403 11.6812C18.188 11.2799 17.0515 10.6379 17.0515 9.47425C17.0515 7.86921 18.6344 6.7858 20.8668 6.7858C21.7191 6.7858 22.4497 6.9463 22.8961 7.14694L22.5714 8.91249L22.4091 8.75198C22.0032 8.59148 21.4756 8.43097 20.7044 8.43097C19.8521 8.4711 19.4462 8.83223 19.4462 9.15324C19.4462 9.51438 19.9332 9.79526 20.7044 10.1564C22.0032 10.7583 22.612 11.4404 22.612 12.4035Z" fill="#3362AB"/>
<path d="M2.80539 6.98579L2.84598 6.82529H6.33649C6.82354 6.82529 7.18882 6.98579 7.31059 7.50743L8.08175 11.1188C7.31059 9.19273 5.52474 7.62781 2.80539 6.98579Z" fill="#F9B50B"/>
<path d="M12.9929 6.90584L9.46177 15.0514H7.06712L5.03776 8.23C6.4989 9.1529 7.71652 10.5974 8.16298 11.6006L8.4065 12.4432L10.5982 6.86571H12.9929V6.90584Z" fill="#3362AB"/>
<path d="M13.9264 6.86571H16.1587L14.7381 15.0514H12.5058L13.9264 6.86571Z" fill="#3362AB"/>
</svg>
