<svg width="18" height="18" viewBox="0 0 18 18" fill="none" xmlns="http://www.w3.org/2000/svg">
<path d="M16.8155 0.504395H1.18356C0.807625 0.504395 0.503906 0.808113 0.503906 1.18404V16.816C0.503906 17.1919 0.807625 17.4956 1.18356 17.4956H16.8155C17.1914 17.4956 17.4951 17.1919 17.4951 16.816V1.18404C17.4951 0.808113 17.1914 0.504395 16.8155 0.504395ZM14.853 5.46371H13.4958C12.4318 5.46371 12.2257 5.9692 12.2257 6.71257V8.3501H14.7659L14.4346 10.9137H12.2257V17.4956H9.57723V10.9158H7.362V8.3501H9.57723V6.45983C9.57723 4.26583 10.9174 3.07007 12.8757 3.07007C13.8144 3.07007 14.6194 3.14016 14.8551 3.17202V5.46371H14.853Z" fill="white"/>
</svg>
